<svg width="45" height="45" viewBox="0 0 45 45" fill="none" xmlns="http://www.w3.org/2000/svg">
<g clip-path="url(#clip0_24_90)">
<rect x="1" y="1" width="43" height="43" rx="21.5" fill="white"/>
<rect x="1" y="1" width="43" height="43" rx="21.5" stroke="#F13C6E" stroke-width="2"/>
<path d="M27.4057 12.5042L24.8122 12.5C21.8985 12.5 20.0155 14.4319 20.0155 17.422V19.6914H17.4078C17.1825 19.6914 17 19.8741 17 20.0994V23.3875C17 23.6128 17.1827 23.7953 17.4078 23.7953H20.0155V32.0922C20.0155 32.3175 20.198 32.5 20.4233 32.5H23.8256C24.0509 32.5 24.2334 32.3173 24.2334 32.0922V23.7953H27.2823C27.5077 23.7953 27.6902 23.6128 27.6902 23.3875L27.6914 20.0994C27.6914 19.9912 27.6483 19.8876 27.572 19.811C27.4956 19.7345 27.3916 19.6914 27.2834 19.6914H24.2334V17.7676C24.2334 16.843 24.4537 16.3736 25.6582 16.3736L27.4053 16.373C27.6304 16.373 27.8129 16.1903 27.8129 15.9651V12.912C27.8129 12.6871 27.6306 12.5046 27.4057 12.5042Z" fill="#F13C6E"/>
</g>
<defs>
<clipPath id="clip0_24_90">
<rect width="45" height="45" fill="white"/>
</clipPath>
</defs>
</svg>
