<svg width="45" height="45" viewBox="0 0 45 45" fill="none" xmlns="http://www.w3.org/2000/svg">
<rect x="1" y="1" width="43" height="43" rx="21.5" fill="white"/>
<rect x="1" y="1" width="43" height="43" rx="21.5" stroke="#F13C6E" stroke-width="2"/>
<path d="M35.8947 28.4498C35.8607 28.3766 35.8291 28.3159 35.7997 28.2672C35.3131 27.3909 34.3833 26.3154 33.0109 25.0402L32.9819 25.011L32.9674 24.9966L32.9527 24.982H32.9379C32.3151 24.3882 31.9206 23.9889 31.7554 23.7845C31.4532 23.3951 31.3855 23.001 31.5507 22.6016C31.6674 22.2999 32.1057 21.6627 32.8648 20.6891C33.264 20.1732 33.5802 19.7596 33.8137 19.4481C35.4978 17.2092 36.228 15.7784 36.004 15.1554L35.917 15.0098C35.8585 14.9221 35.7077 14.842 35.4646 14.7688C35.221 14.6959 34.9096 14.6838 34.5299 14.7324L30.3249 14.7615C30.2567 14.7373 30.1595 14.7396 30.0328 14.7688C29.9062 14.7981 29.8429 14.8128 29.8429 14.8128L29.7697 14.8493L29.7116 14.8933C29.6629 14.9223 29.6094 14.9734 29.5509 15.0464C29.4928 15.1192 29.4441 15.2046 29.4053 15.3019C28.9474 16.4797 28.4269 17.5748 27.8428 18.5871C27.4826 19.1907 27.1518 19.7138 26.8497 20.1567C26.548 20.5995 26.2949 20.9257 26.0907 21.1349C25.8861 21.3442 25.7015 21.5119 25.5357 21.6385C25.3702 21.7653 25.2438 21.8188 25.1563 21.7992C25.0686 21.7796 24.986 21.7602 24.9078 21.7408C24.7716 21.6531 24.6621 21.5339 24.5795 21.383C24.4965 21.2322 24.4407 21.0423 24.4115 20.8135C24.3824 20.5846 24.3652 20.3877 24.3603 20.2222C24.3558 20.0569 24.3579 19.823 24.3678 19.5213C24.3779 19.2194 24.3824 19.0151 24.3824 18.908C24.3824 18.5381 24.3896 18.1366 24.4041 17.7034C24.4188 17.2703 24.4308 16.9271 24.4407 16.6742C24.4507 16.4211 24.4553 16.1534 24.4553 15.8711C24.4553 15.5888 24.4381 15.3674 24.4041 15.2067C24.3706 15.0462 24.3191 14.8904 24.2512 14.7394C24.1829 14.5886 24.083 14.4719 23.9519 14.389C23.8205 14.3063 23.6572 14.2406 23.4628 14.1918C22.9468 14.0751 22.2898 14.0119 21.4915 14.0021C19.681 13.9826 18.5177 14.0996 18.0018 14.3526C17.7974 14.4596 17.6124 14.6057 17.4471 14.7905C17.2718 15.0047 17.2473 15.1216 17.3739 15.1409C17.958 15.2284 18.3715 15.4377 18.6149 15.7686L18.7026 15.944C18.7708 16.0705 18.8389 16.2945 18.9071 16.6157C18.9752 16.9368 19.0191 17.2921 19.0384 17.6813C19.087 18.392 19.087 19.0004 19.0384 19.5064C18.9897 20.0127 18.9437 20.4069 18.8997 20.6892C18.8558 20.9715 18.7902 21.2002 18.7026 21.3754C18.6149 21.5506 18.5565 21.6577 18.5273 21.6965C18.4981 21.7354 18.4737 21.7599 18.4544 21.7695C18.3279 21.818 18.1963 21.8427 18.0601 21.8427C17.9237 21.8427 17.7583 21.7745 17.5637 21.6381C17.3691 21.5018 17.1672 21.3145 16.9578 21.076C16.7485 20.8374 16.5125 20.504 16.2495 20.0758C15.9868 19.6475 15.7143 19.1414 15.432 18.5574L15.1984 18.1338C15.0524 17.8614 14.8529 17.4646 14.5998 16.9439C14.3466 16.4231 14.1228 15.9192 13.9282 15.4325C13.8504 15.2281 13.7335 15.0725 13.5778 14.9654L13.5047 14.9215C13.4561 14.8826 13.3781 14.8413 13.2712 14.7974C13.164 14.7534 13.0522 14.7219 12.9353 14.7025L8.93465 14.7316C8.52583 14.7316 8.24844 14.8242 8.10238 15.0092L8.04393 15.0967C8.01473 15.1454 8 15.2233 8 15.3304C8 15.4375 8.0292 15.5689 8.08765 15.7245C8.67168 17.0972 9.3068 18.4209 9.993 19.6961C10.6792 20.9712 11.2755 21.9984 11.7815 22.7766C12.2877 23.5554 12.8036 24.2905 13.3293 24.9814C13.8549 25.6726 14.2029 26.1155 14.3731 26.3101C14.5436 26.505 14.6775 26.6508 14.7748 26.7481L15.1399 27.0985C15.3735 27.3321 15.7166 27.612 16.1692 27.938C16.6219 28.2642 17.1232 28.5854 17.6731 28.902C18.2232 29.2181 18.8631 29.476 19.5933 29.6755C20.3233 29.8752 21.0338 29.9554 21.725 29.9167H23.4042C23.7447 29.8873 24.0027 29.7802 24.1781 29.5954L24.2362 29.5222C24.2752 29.4641 24.3118 29.3739 24.3456 29.2524C24.3797 29.1307 24.3967 28.9967 24.3967 28.8509C24.3867 28.4324 24.4186 28.0553 24.4914 27.7195C24.5642 27.3838 24.6471 27.1307 24.7399 26.9602C24.8326 26.7899 24.9373 26.6462 25.0537 26.5297C25.1704 26.413 25.2536 26.3423 25.3023 26.3179C25.3508 26.2934 25.3895 26.2768 25.4187 26.2668C25.6524 26.189 25.9273 26.2644 26.2439 26.4933C26.5604 26.7221 26.8571 27.0045 27.1347 27.3402C27.4122 27.6762 27.7455 28.0532 28.1348 28.4716C28.5243 28.8903 28.8649 29.2015 29.1568 29.4062L29.4487 29.5814C29.6437 29.6983 29.8968 29.8054 30.2083 29.9027C30.5193 30 30.7918 30.0243 31.0257 29.9757L34.7635 29.9174C35.1332 29.9174 35.4208 29.8562 35.6249 29.7347C35.8293 29.6131 35.9508 29.479 35.99 29.3332C36.029 29.1873 36.0311 29.0217 35.9974 28.8365C35.9628 28.6519 35.9286 28.5227 35.8947 28.4498Z" fill="#F13C6E"/>
</svg>
