<svg width="45" height="45" viewBox="0 0 45 45" fill="none" xmlns="http://www.w3.org/2000/svg">
<rect x="1" y="1" width="43" height="43" rx="21.5" fill="white"/>
<rect x="1" y="1" width="43" height="43" rx="21.5" stroke="#F13C6E" stroke-width="2"/>
<path d="M28.5749 14H15.6069C13.0626 14 11 16.1025 11 18.696V25.304C11 27.8975 13.0626 30 15.6069 30H28.5749C31.1192 30 33.1818 27.8975 33.1818 25.304V18.696C33.1818 16.1025 31.1192 14 28.5749 14ZM25.4593 22.3215L19.3938 25.2704C19.2321 25.3489 19.0454 25.2288 19.0454 25.0463V18.9643C19.0454 18.7792 19.237 18.6592 19.399 18.7429L25.4646 21.8761C25.6449 21.9692 25.6418 22.2328 25.4593 22.3215Z" fill="#F13C6E"/>
</svg>
